<svg id="Layer_1" data-name="Layer 1" xmlns="http://www.w3.org/2000/svg" xmlns:xlink="http://www.w3.org/1999/xlink" viewBox="0 0 60 51"><defs><style>.cls-1,.cls-2{fill:none;}.cls-2{stroke:#40aacf;stroke-miterlimit:10;stroke-width:2px;}.cls-3{fill:#40aacf;}.cls-4{clip-path:url(#clip-path);}</style><clipPath id="clip-path"><polygon class="cls-1" points="15.72 14.39 15.72 21.33 16.23 47.5 55.5 47.5 55.5 14.39 15.72 14.39"/></clipPath></defs><title>zeroqode-for-designers-blue-01</title><path class="cls-2" d="M55.75,22.62V43.75a5,5,0,0,1-5,5H9.25a5,5,0,0,1-5-5V7.25a5,5,0,0,1,5-5h41.5a5,5,0,0,1,5,5V22.62Z"/><line class="cls-2" x1="4.25" y1="12.5" x2="55.75" y2="12.25"/><circle class="cls-3" cx="10.5" cy="7.62" r="1.25"/><circle class="cls-3" cx="14.09" cy="7.62" r="1.25"/><circle class="cls-3" cx="17.69" cy="7.62" r="1.25"/><rect class="cls-3" x="24.75" y="6.86" width="26.18" height="1.53" rx="0.62" ry="0.62"/><g class="cls-4"><path class="cls-2" d="M62.67,43V42.19l2.88-1.25L65,37.21l-3.15-.35a15.39,15.39,0,0,0-.58-1.75L63.57,33l-1.75-3.31-3.07.78A13.49,13.49,0,0,0,57.58,29L59,26.24l-2.8-2.53-2.61,1.75c-0.51-.35-1.05-0.66-1.6-1l0.35-3-3.46-1.4L47,22.62A15.62,15.62,0,0,0,45,22.27l-0.89-3.11-3.74.16-0.7,2.92a13.21,13.21,0,0,0-1.79.31L36,19.89l-3.5,1.4,0.35,3a15.44,15.44,0,0,0-1.52.89l-2.76-1.91-2.8,2.53,1.4,2.8c-0.39.43-.78,0.86-1.13,1.32l-3.31-.82L21,32.46l2.33,2.18c-0.19.51-.43,1.05-0.58,1.56l-3.42.39-0.51,3.74,3,1.28v1.6l-3.19,1.56,0.78,3.66,3.31,0.19c0.16,0.51.31,1,.51,1.48l-2.49,2.57,2,3.15,3.19-1a14.64,14.64,0,0,0,1,1.21l-1.48,3.31,3,2.3,2.68-2a14.75,14.75,0,0,0,1.32.78l-0.23,3.62,3.58,1.17,1.83-2.76c0.47,0.12.93,0.19,1.44,0.31l0.78,3.35,3.74,0.12,1-3.35,1.6-.23,1.87,2.84,3.58-1.17-0.23-3.38c0.51-.23,1-0.51,1.44-0.78l2.68,2,3-2.3L57,56.78c0.39-.39.78-0.82,1.13-1.25l3.15,0.93,2-3.19-2.3-2.37a15.88,15.88,0,0,0,.66-1.63l3.19-.19,0.78-3.66L62.63,44A7.5,7.5,0,0,1,62.67,43Zm-4.75,3.38-5.56-2.57a10.25,10.25,0,0,0,.08-1.09,10.15,10.15,0,0,0-3-7.55L52,29.58a16.23,16.23,0,0,1,5.91,16.85h0ZM26.41,38.88L32,41.45a5,5,0,0,0,0,.78,10.35,10.35,0,0,0,3.54,8l-2.57,5.56a16.16,16.16,0,0,1-6.54-16.92h0Zm12.72,3.54a3.07,3.07,0,1,1,3,3.15h0a3.06,3.06,0,0,1-3-3.15h0Zm4.59-10a7.16,7.16,0,0,0-1.28-.12,10.11,10.11,0,0,0-7.86,3.42L29,33.12a16.14,16.14,0,0,1,17.27-6.26ZM41.35,52.69c0.19,0,.39,0,0.62,0a10.16,10.16,0,0,0,7.66-3.15l5.6,2.57a16.14,16.14,0,0,1-16.46,6.19Z"/></g></svg>